<svg width="60" height="60" viewBox="0 0 60 60" fill="none" xmlns="http://www.w3.org/2000/svg">
<rect width="60" height="60" rx="30" fill="#848484"/>
<path d="M27 20C24.38 20 22.25 22.13 22.25 24.75C22.25 27.32 24.26 29.4 26.88 29.49C26.96 29.48 27.04 29.48 27.1 29.49C27.12 29.49 27.13 29.49 27.15 29.49C27.16 29.49 27.16 29.49 27.17 29.49C29.73 29.4 31.74 27.32 31.75 24.75C31.75 22.13 29.62 20 27 20Z" fill="#F8F9FB"/>
<path d="M32.08 32.1499C29.29 30.2899 24.74 30.2899 21.93 32.1499C20.66 32.9999 19.96 34.1499 19.96 35.3799C19.96 36.6099 20.66 37.7499 21.92 38.5899C23.32 39.5299 25.16 39.9999 27 39.9999C28.84 39.9999 30.68 39.5299 32.08 38.5899C33.34 37.7399 34.04 36.5999 34.04 35.3599C34.03 34.1299 33.34 32.9899 32.08 32.1499Z" fill="#F8F9FB"/>
<path d="M37.9899 25.3401C38.1499 27.2801 36.7699 28.9801 34.8599 29.2101C34.8499 29.2101 34.8499 29.2101 34.8399 29.2101H34.8099C34.7499 29.2101 34.6899 29.2101 34.6399 29.2301C33.6699 29.2801 32.7799 28.9701 32.1099 28.4001C33.1399 27.4801 33.7299 26.1001 33.6099 24.6001C33.5399 23.7901 33.2599 23.0501 32.8399 22.4201C33.2199 22.2301 33.6599 22.1101 34.1099 22.0701C36.0699 21.9001 37.8199 23.3601 37.9899 25.3401Z" fill="#F8F9FB"/>
<path d="M39.9902 34.5899C39.9102 35.5599 39.2902 36.3999 38.2502 36.9699C37.2502 37.5199 35.9902 37.7799 34.7402 37.7499C35.4602 37.0999 35.8802 36.2899 35.9602 35.4299C36.0602 34.1899 35.4702 32.9999 34.2902 32.0499C33.6202 31.5199 32.8402 31.0999 31.9902 30.7899C34.2002 30.1499 36.9802 30.5799 38.6902 31.9599C39.6102 32.6999 40.0802 33.6299 39.9902 34.5899Z" fill="#F8F9FB"/>
</svg>
