<svg width="60" height="60" viewBox="0 0 60 60" fill="none" xmlns="http://www.w3.org/2000/svg">
<rect width="60" height="60" rx="30" fill="#848484"/>
<path d="M35 40H25C24.59 40 24.25 39.66 24.25 39.25C24.25 38.84 24.59 38.5 25 38.5H35C35.41 38.5 35.75 38.84 35.75 39.25C35.75 39.66 35.41 40 35 40Z" fill="#F8F9FB"/>
<path d="M38.3502 23.52L34.3502 26.38C33.8202 26.76 33.0602 26.53 32.8302 25.92L30.9402 20.88C30.6202 20.01 29.3902 20.01 29.0702 20.88L27.1702 25.91C26.9402 26.53 26.1902 26.76 25.6602 26.37L21.6602 23.51C20.8602 22.95 19.8002 23.74 20.1302 24.67L24.2902 36.32C24.4302 36.72 24.8102 36.98 25.2302 36.98H34.7602C35.1802 36.98 35.5602 36.71 35.7002 36.32L39.8602 24.67C40.2002 23.74 39.1402 22.95 38.3502 23.52ZM32.5002 32.75H27.5002C27.0902 32.75 26.7502 32.41 26.7502 32C26.7502 31.59 27.0902 31.25 27.5002 31.25H32.5002C32.9102 31.25 33.2502 31.59 33.2502 32C33.2502 32.41 32.9102 32.75 32.5002 32.75Z" fill="#F8F9FB"/>
</svg>
