<svg width="16" height="16" viewBox="0 0 16 16" fill="none" xmlns="http://www.w3.org/2000/svg">
<g clip-path="url(#clip0_32970_4251)">
<path d="M2.66663 8.00033C2.66663 5.48617 2.66663 4.22909 3.44767 3.44804C4.22873 2.66699 5.4858 2.66699 7.99996 2.66699C10.5141 2.66699 11.7712 2.66699 12.5522 3.44804C13.3333 4.22909 13.3333 5.48617 13.3333 8.00033C13.3333 10.5145 13.3333 11.7716 12.5522 12.5526C11.7712 13.3337 10.5141 13.3337 7.99996 13.3337C5.4858 13.3337 4.22873 13.3337 3.44767 12.5526C2.66663 11.7716 2.66663 10.5145 2.66663 8.00033Z" stroke="black" stroke-linejoin="round"/>
<path d="M5 10L6.22793 6.31623C6.29087 6.12738 6.4676 6 6.66667 6C6.86573 6 7.04247 6.12738 7.1054 6.31623L8.33333 10M5.66667 8.66667H7.66667" stroke="black" stroke-linecap="round" stroke-linejoin="round"/>
<path d="M10.3334 6V10" stroke="black" stroke-linecap="round" stroke-linejoin="round"/>
<path d="M5.33337 1.33301V2.66634M10.6667 1.33301V2.66634M8.00004 1.33301V2.66634M5.33337 13.333V14.6663M8.00004 13.333V14.6663M10.6667 13.333V14.6663M14.6667 10.6663H13.3334M2.66671 5.33301H1.33337M2.66671 10.6663H1.33337M2.66671 7.99967H1.33337M14.6667 5.33301H13.3334M14.6667 7.99967H13.3334" stroke="black" stroke-linecap="round" stroke-linejoin="round"/>
</g>
<defs>
<clipPath id="clip0_32970_4251">
<rect width="16" height="16" fill="white"/>
</clipPath>
</defs>
</svg>
