<svg width="16" height="16" viewBox="0 0 16 16" fill="none" xmlns="http://www.w3.org/2000/svg">
<path fill-rule="evenodd" clip-rule="evenodd" d="M14.5925 10.5968H11.8938C10.6291 10.5968 9.59979 9.56812 9.59912 8.30412C9.59912 7.03879 10.6285 6.00946 11.8938 6.00879H14.5925C14.8685 6.00879 15.0925 6.23279 15.0925 6.50879C15.0925 6.78479 14.8685 7.00879 14.5925 7.00879H11.8938C11.1798 7.00946 10.5991 7.59012 10.5991 8.30346C10.5991 9.01612 11.1805 9.59679 11.8938 9.59679H14.5925C14.8685 9.59679 15.0925 9.82079 15.0925 10.0968C15.0925 10.3728 14.8685 10.5968 14.5925 10.5968" fill="black"/>
<path fill-rule="evenodd" clip-rule="evenodd" d="M12.1988 8.7627H11.9908C11.7148 8.7627 11.4908 8.5387 11.4908 8.2627C11.4908 7.9867 11.7148 7.7627 11.9908 7.7627H12.1988C12.4748 7.7627 12.6988 7.9867 12.6988 8.2627C12.6988 8.5387 12.4748 8.7627 12.1988 8.7627" fill="black"/>
<mask id="mask0_32970_4214" style="mask-type:luminance" maskUnits="userSpaceOnUse" x="1" y="2" width="15" height="13">
<path fill-rule="evenodd" clip-rule="evenodd" d="M1.33337 2H15.0924V14.7819H1.33337V2Z" fill="white"/>
</mask>
<g mask="url(#mask0_32970_4214)">
<path fill-rule="evenodd" clip-rule="evenodd" d="M5.33167 3C3.67834 3 2.33301 4.34533 2.33301 5.99867V10.7833C2.33301 12.4367 3.67834 13.782 5.33167 13.782H11.0943C12.7477 13.782 14.0923 12.4367 14.0923 10.7833V5.99867C14.0923 4.34533 12.7477 3 11.0943 3H5.33167ZM11.0943 14.782H5.33167C3.12701 14.782 1.33301 12.988 1.33301 10.7833V5.99867C1.33301 3.79333 3.12701 2 5.33167 2H11.0943C13.299 2 15.0923 3.79333 15.0923 5.99867V10.7833C15.0923 12.988 13.299 14.782 11.0943 14.782V14.782Z" fill="black"/>
</g>
<path fill-rule="evenodd" clip-rule="evenodd" d="M8.45639 6.02539H4.85706C4.58106 6.02539 4.35706 5.80139 4.35706 5.52539C4.35706 5.24939 4.58106 5.02539 4.85706 5.02539H8.45639C8.73239 5.02539 8.95639 5.24939 8.95639 5.52539C8.95639 5.80139 8.73239 6.02539 8.45639 6.02539" fill="black"/>
</svg>
