<svg width="16" height="16" viewBox="0 0 16 16" fill="none" xmlns="http://www.w3.org/2000/svg">
<path d="M10.3333 7.33333C10.3333 6.04467 9.28863 5 7.99996 5C6.71129 5 5.66663 6.04467 5.66663 7.33333C5.66663 8.622 6.71129 9.66667 7.99996 9.66667C9.28863 9.66667 10.3333 8.622 10.3333 7.33333Z" stroke="black" stroke-linecap="square"/>
<path d="M10.3218 7.5666C10.5365 7.63167 10.7642 7.66667 11 7.66667C12.2887 7.66667 13.3334 6.622 13.3334 5.33333C13.3334 4.04467 12.2887 3 11 3C9.79009 3 8.79522 3.92093 8.67822 5.10009" stroke="black" stroke-linecap="square"/>
<path d="M7.32176 5.10009C7.20476 3.92093 6.20991 3 4.99996 3C3.71129 3 2.66663 4.04467 2.66663 5.33333C2.66663 6.622 3.71129 7.66667 4.99996 7.66667C5.23583 7.66667 5.46353 7.63167 5.67814 7.5666" stroke="black" stroke-linecap="square"/>
<path d="M14.6667 11.0003C14.6667 9.15939 13.0251 7.66699 11 7.66699" stroke="black" stroke-linecap="square"/>
<path d="M11.6667 13.0003C11.6667 11.1594 10.0251 9.66699 8.00004 9.66699C5.97499 9.66699 4.33337 11.1594 4.33337 13.0003" stroke="black" stroke-linecap="square"/>
<path d="M5.00004 7.66699C2.97499 7.66699 1.33337 9.15939 1.33337 11.0003" stroke="black" stroke-linecap="square"/>
</svg>
