<svg width="16" height="16" viewBox="0 0 16 16" fill="none" xmlns="http://www.w3.org/2000/svg">
<path fill-rule="evenodd" clip-rule="evenodd" d="M4.74731 11.7091C4.47131 11.7091 4.24731 11.4851 4.24731 11.2091V6.63574C4.24731 6.35974 4.47131 6.13574 4.74731 6.13574C5.02331 6.13574 5.24731 6.35974 5.24731 6.63574V11.2091C5.24731 11.4851 5.02331 11.7091 4.74731 11.7091Z" fill="black"/>
<path fill-rule="evenodd" clip-rule="evenodd" d="M7.85864 11.7083C7.58264 11.7083 7.35864 11.4843 7.35864 11.2083V4.44629C7.35864 4.17029 7.58264 3.94629 7.85864 3.94629C8.13464 3.94629 8.35864 4.17029 8.35864 4.44629V11.2083C8.35864 11.4843 8.13464 11.7083 7.85864 11.7083Z" fill="black"/>
<path fill-rule="evenodd" clip-rule="evenodd" d="M10.9189 11.7078C10.6429 11.7078 10.4189 11.4838 10.4189 11.2078V9.05176C10.4189 8.77576 10.6429 8.55176 10.9189 8.55176C11.1949 8.55176 11.4189 8.77576 11.4189 9.05176V11.2078C11.4189 11.4838 11.1949 11.7078 10.9189 11.7078Z" fill="black"/>
<path fill-rule="evenodd" clip-rule="evenodd" d="M4.70929 1.66699C2.86129 1.66699 1.66663 2.93166 1.66663 4.89033V10.777C1.66663 12.7357 2.86129 14.0003 4.70929 14.0003H10.9573C12.806 14.0003 14 12.7357 14 10.777V4.89033C14 2.93166 12.806 1.66699 10.9573 1.66699H4.70929ZM10.9573 15.0003H4.70929C2.29129 15.0003 0.666626 13.303 0.666626 10.777V4.89033C0.666626 2.36433 2.29129 0.666992 4.70929 0.666992H10.9573C13.3753 0.666992 15 2.36433 15 4.89033V10.777C15 13.303 13.3753 15.0003 10.9573 15.0003Z" fill="black"/>
</svg>
