<svg width="37" height="36" viewBox="0 0 37 36" fill="none" xmlns="http://www.w3.org/2000/svg">
<path d="M0.5 18C0.5 8.05887 8.55887 0 18.5 0C28.4411 0 36.5 8.05887 36.5 18C36.5 27.9411 28.4411 36 18.5 36C8.55887 36 0.5 27.9411 0.5 18Z" fill="#E5EDF2"/>
<path d="M18.5001 13.2162C19.9648 13.2162 20.9528 13.8489 21.5161 14.3775L23.7174 12.2282C22.3654 10.9715 20.6061 10.2002 18.5001 10.2002C15.4494 10.2002 12.8148 11.9509 11.5321 14.4989L14.0541 16.4575C14.6868 14.5769 16.4374 13.2162 18.5001 13.2162Z" fill="#EA4335"/>
<path d="M25.988 18.1733C25.988 17.5319 25.936 17.0639 25.8233 16.5786H18.5V19.4733H22.7987C22.712 20.1926 22.244 21.2759 21.204 22.0039L23.6653 23.9106C25.1387 22.5499 25.988 20.5479 25.988 18.1733Z" fill="#4285F4"/>
<path d="M14.0627 19.5425C13.8981 19.0572 13.8027 18.5372 13.8027 17.9999C13.8027 17.4625 13.8981 16.9425 14.0541 16.4572L11.5321 14.4985C11.0034 15.5559 10.7001 16.7432 10.7001 17.9999C10.7001 19.2565 11.0034 20.4439 11.5321 21.5012L14.0627 19.5425Z" fill="#FBBC05"/>
<path d="M18.5001 25.8001C20.6061 25.8001 22.3741 25.1067 23.6654 23.9107L21.2041 22.0041C20.5454 22.4634 19.6614 22.7841 18.5001 22.7841C16.4374 22.7841 14.6868 21.4234 14.0628 19.5427L11.5408 21.5014C12.8234 24.0494 15.4494 25.8001 18.5001 25.8001Z" fill="#34A853"/>
</svg>
